# xmcd
#
# Track frame offsets: 
#        150
#        13335
#        27142
#        37666
#        54947
#        69803
#        82899
#        99973
#        113832
#        128490
#
# Disc length: 1889 seconds
#
# Revision: 0
# Processed by: cddbd v1.5.2PL0 Copyright (c) Steve Scherf et al.
# Submitted via: ExactAudioCopy v0.99pb3
#
DISCID=64075f0a
DTITLE=Laura Reed - The Awakening
DYEAR=2014
DGENRE=
TTITLE0=Naturally
TTITLE1=Bombshelter
TTITLE2=Wake Up
TTITLE3=Struggle
TTITLE4=Kindness
TTITLE5=Voodoo
TTITLE6=Dragging My Heart
TTITLE7=Wolves
TTITLE8=Faith Not Fear
TTITLE9=Show Love
EXTD=
EXTT0=
EXTT1=
EXTT2=
EXTT3=
EXTT4=
EXTT5=
EXTT6=
EXTT7=
EXTT8=
EXTT9=
PLAYORDER=
